<svg width="142" height="119" viewBox="0 0 142 119" fill="none" xmlns="http://www.w3.org/2000/svg">
<g clip-path="url(#clip0_1_2)">
<path d="M136.083 14.875H36.9081C34.9123 14.875 33.0513 15.718 31.9581 17.1172L0.966551 56.7839C-0.322265 58.4336 -0.322265 60.5664 0.966551 62.2161L31.9581 101.883C33.0513 103.282 34.9123 104.125 36.9081 104.125H136.083C139.351 104.125 142 101.905 142 99.1667V19.8333C142 17.0949 139.351 14.875 136.083 14.875ZM130.167 94.2083H40.1064L12.9888 59.5L40.1064 24.7917H130.167V94.2083H130.167Z" fill="black"/>
<path d="M54.9823 82.8393C57.2929 84.7756 61.0392 84.7756 63.3498 82.8393L82.8326 66.5121L102.315 82.8393C104.626 84.7756 108.372 84.7756 110.683 82.8393C112.993 80.903 112.993 77.7634 110.683 75.8271L91.2001 59.4999L110.683 43.1728C112.993 41.2365 112.993 38.0969 110.683 36.1606C108.372 34.2243 104.626 34.2243 102.315 36.1606L82.8326 52.4878L63.3498 36.1606C61.0392 34.2243 57.2929 34.2243 54.9823 36.1606C52.6718 38.0969 52.6718 41.2365 54.9823 43.1728L74.4654 59.4999L54.9826 75.8271C52.6717 77.7637 52.6718 80.903 54.9823 82.8393Z" fill="black"/>
</g>
<defs>
<clipPath id="clip0_1_2">
<rect width="142" height="119" fill="white"/>
</clipPath>
</defs>
</svg>
