<svg width="142" height="90" viewBox="0 0 142 90" fill="none" xmlns="http://www.w3.org/2000/svg">
<path d="M136.083 0H36.9082C34.9124 0 33.0514 0.843001 31.9582 2.2422L0.966612 41.9089C-0.322204 43.5586 -0.322204 45.6914 0.966612 47.3411L31.9582 87.008C33.0514 88.407 34.9124 89.25 36.9082 89.25H136.083C139.351 89.25 142 87.03 142 84.2917V4.9583C142 2.2199 139.351 0 136.083 0ZM130.167 79.3333H40.1065L12.9889 44.625L40.1065 9.9167H130.167V79.3333Z" fill="#8BE4F0"/>
<path d="M54.9824 67.9643C57.293 69.9006 61.0393 69.9006 63.3499 67.9643L82.8327 51.6371L102.315 67.9643C104.626 69.9006 108.372 69.9006 110.683 67.9643C112.993 66.028 112.993 62.8884 110.683 60.9521L91.2002 44.6249L110.683 28.2978C112.993 26.3615 112.993 23.2219 110.683 21.2856C108.372 19.3493 104.626 19.3493 102.315 21.2856L82.8327 37.6128L63.3499 21.2856C61.0393 19.3493 57.293 19.3493 54.9824 21.2856C52.6719 23.2219 52.6719 26.3615 54.9824 28.2978L74.4655 44.6249L54.9827 60.9521C52.6718 62.8887 52.6719 66.028 54.9824 67.9643Z" fill="#8BE4F0"/>
</svg>
